<svg xmlns="http://www.w3.org/2000/svg" xmlns:xlink="http://www.w3.org/1999/xlink" width="1280" zoomAndPan="magnify" viewBox="0 0 960 959.999988" height="1280" preserveAspectRatio="xMidYMid meet" version="1.0"><defs><g/></defs><g fill="#ffffff" fill-opacity="1"><g transform="translate(0.00000575, 918.82702)"><g><path d="M 502.78125 -896.859375 C 571.132812 -896.859375 631.664062 -884.707031 684.375 -860.40625 C 737.082031 -836.113281 779.5 -802.554688 811.625 -759.734375 L 721.4375 -694.265625 C 695.082031 -729.679688 662.550781 -756.238281 623.84375 -773.9375 C 585.132812 -791.644531 544.78125 -800.5 502.78125 -800.5 C 409.71875 -800.5 331.273438 -765.085938 267.453125 -694.265625 C 203.628906 -623.441406 170.890625 -537.789062 169.234375 -437.3125 C 169.234375 -333.539062 200.941406 -247.269531 264.359375 -178.5 C 327.773438 -109.738281 407.25 -74.945312 502.78125 -74.125 C 607.375 -74.125 691.789062 -114.890625 756.03125 -196.421875 L 833.859375 -130.953125 C 757.265625 -28.828125 646.90625 22.234375 502.78125 22.234375 C 375.132812 22.234375 269.515625 -21.820312 185.921875 -109.9375 C 102.328125 -198.0625 59.707031 -307.1875 58.0625 -437.3125 C 58.0625 -567.4375 100.269531 -676.144531 184.6875 -763.4375 C 269.101562 -850.738281 375.132812 -895.210938 502.78125 -896.859375 Z M 502.78125 -896.859375 "/></g></g></g></svg>