<svg xmlns="http://www.w3.org/2000/svg" xmlns:xlink="http://www.w3.org/1999/xlink" width="1280" zoomAndPan="magnify" viewBox="0 0 960 959.999988" height="1280" preserveAspectRatio="xMidYMid meet" version="1.0"><defs><g/></defs><g fill="#ffffff" fill-opacity="1"><g transform="translate(908.748533, 98.180175)"><g><path d="M -450.703125 -11.71875 C -379.296875 -11.71875 -315.703125 4.640625 -259.921875 37.359375 C -204.148438 70.085938 -160.457031 117.96875 -128.84375 181 C -97.238281 244.03125 -81.4375 319.613281 -81.4375 407.75 C -81.4375 495.875 -97.238281 571.453125 -128.84375 634.484375 C -160.457031 697.515625 -204.148438 745.390625 -259.921875 778.109375 C -315.703125 810.835938 -379.296875 827.203125 -450.703125 827.203125 C -526.929688 827.203125 -590.332031 812.789062 -640.90625 783.96875 C -691.476562 755.15625 -727.921875 711.742188 -750.234375 653.734375 L -688.875 613.015625 L -674.921875 613.015625 C -652.617188 659.492188 -623.613281 692.492188 -587.90625 712.015625 C -552.207031 731.546875 -506.472656 741.3125 -450.703125 741.3125 C -399.378906 741.3125 -353.820312 729.875 -314.03125 707 C -274.25 684.132812 -242.644531 647.878906 -219.21875 598.234375 C -195.789062 548.585938 -184.078125 485.09375 -184.078125 407.75 C -184.078125 330.394531 -195.789062 266.988281 -219.21875 217.53125 C -242.644531 168.082031 -274.25 131.921875 -314.03125 109.046875 C -353.820312 86.179688 -399.378906 74.75 -450.703125 74.75 C -509.828125 74.75 -558.164062 88.039062 -595.71875 114.625 C -633.28125 141.21875 -661.171875 184.257812 -679.390625 243.75 L -693.34375 243.75 L -757.484375 211.96875 C -738.148438 139.820312 -702.359375 84.503906 -650.109375 46.015625 C -597.859375 7.523438 -531.390625 -11.71875 -450.703125 -11.71875 Z M -450.703125 -11.71875 "/></g></g></g></svg>